<?xml version="1.0" standalone="no"?>
<!DOCTYPE svg PUBLIC "-//W3C//DTD SVG 20010904//EN"
 "http://www.w3.org/TR/2001/REC-SVG-20010904/DTD/svg10.dtd">
<svg version="1.0" xmlns="http://www.w3.org/2000/svg"
 width="500.000000pt" height="500.000000pt" viewBox="0 0 500.000000 500.000000"
 preserveAspectRatio="xMidYMid meet">
<metadata>
Created by potrace 1.14, written by Peter Selinger 2001-2017
</metadata>
<g transform="translate(0.000000,500.000000) scale(0.100000,-0.100000)"
fill="#000000" stroke="none">
<path d="M2024 4661 c-50 -13 -133 -63 -166 -100 -17 -19 -43 -60 -57 -91 -26
-55 -26 -56 -26 -317 l0 -262 -660 -4 c-480 -3 -672 -7 -705 -16 -187 -51
-342 -210 -385 -394 -13 -59 -15 -222 -13 -1329 l3 -1263 27 -68 c62 -153 180
-268 328 -319 l65 -23 2060 0 2060 0 65 23 c148 51 266 166 328 319 l27 68 3
1263 c2 1107 0 1270 -13 1329 -43 184 -198 343 -385 394 -33 9 -225 13 -705
16 l-660 4 0 262 c0 261 0 262 -26 317 -36 77 -77 121 -151 161 l-63 34 -460
2 c-253 1 -474 -2 -491 -6z m897 -280 c24 -19 24 -20 24 -238 0 -205 -1 -221
-22 -263 -26 -52 -367 -486 -398 -505 -13 -8 -28 -10 -41 -5 -26 10 -381 447
-415 510 -23 43 -24 52 -24 263 0 218 0 219 24 238 22 18 44 19 426 19 382 0
404 -1 426 -19z m-831 -983 c91 -116 181 -224 200 -240 51 -41 130 -68 203
-68 149 0 185 27 402 300 l176 220 717 0 717 0 50 -24 c28 -12 67 -41 87 -64
72 -80 69 -7 66 -1368 -3 -1168 -4 -1220 -22 -1254 -34 -64 -63 -95 -117 -125
l-54 -30 -2020 0 c-1953 0 -2021 1 -2055 19 -64 34 -95 63 -125 117 l-30 54
-3 1219 c-3 1361 -6 1288 66 1368 20 23 60 52 87 64 l50 24 720 0 720 -1 165
-211z"/>
<path d="M2294 4266 c-95 -42 -110 -170 -26 -234 l35 -27 192 0 192 0 35 27
c85 65 69 194 -28 234 -46 19 -356 19 -400 0z"/>
<path d="M1385 3290 c-138 -19 -252 -77 -355 -180 -208 -207 -245 -488 -103
-774 18 -38 32 -69 31 -70 -194 -81 -326 -211 -392 -387 -13 -35 -45 -142 -71
-238 -45 -167 -47 -177 -35 -228 15 -69 75 -136 137 -152 30 -8 292 -11 905
-9 l863 3 38 24 c51 32 95 93 102 144 9 64 -82 404 -142 527 -54 113 -168 223
-289 281 l-91 43 33 71 c116 244 96 506 -55 705 -130 174 -361 270 -576 240z
m237 -308 c148 -73 221 -226 189 -394 -28 -141 -139 -301 -242 -348 -96 -43
-204 -18 -292 68 -179 175 -211 436 -71 591 81 90 155 122 274 118 62 -2 87
-8 142 -35z m324 -996 c133 -62 180 -129 233 -327 17 -64 31 -119 31 -122 0
-4 -328 -7 -730 -7 -464 0 -730 4 -730 10 0 5 14 60 31 122 37 134 78 215 132
264 42 38 133 84 205 103 40 11 47 10 121 -27 103 -52 199 -69 298 -54 69 11
175 52 218 85 17 13 25 13 70 0 27 -8 82 -29 121 -47z"/>
<path d="M2633 2691 c-48 -22 -76 -67 -76 -121 0 -54 28 -99 76 -121 40 -18
78 -19 840 -19 873 0 838 -2 890 59 56 67 26 172 -60 207 -26 11 -179 14 -830
14 -762 0 -800 -1 -840 -19z"/>
<path d="M2606 2279 c-57 -50 -66 -121 -23 -183 38 -54 55 -56 428 -56 298 0
345 2 376 17 53 25 75 66 70 132 -3 47 -9 59 -40 88 l-37 33 -370 0 -369 0
-35 -31z"/>
<path d="M3694 2291 c-35 -21 -64 -75 -64 -118 0 -38 32 -89 72 -114 29 -17
47 -19 150 -17 l118 3 36 36 c65 65 56 164 -19 209 -46 29 -247 29 -293 1z"/>
</g>
</svg>
