<?xml version="1.0" standalone="no"?>
<!DOCTYPE svg PUBLIC "-//W3C//DTD SVG 20010904//EN"
 "http://www.w3.org/TR/2001/REC-SVG-20010904/DTD/svg10.dtd">
<svg version="1.0" xmlns="http://www.w3.org/2000/svg"
 width="360.000000pt" height="360.000000pt" viewBox="0 0 360.000000 360.000000"
 preserveAspectRatio="xMidYMid meet">
<metadata>
Created by potrace 1.13, written by Peter Selinger 2001-2015
</metadata>
<g transform="translate(0.000000,360.000000) scale(0.100000,-0.100000)"
fill="#000000" stroke="none">
<path d="M185 2935 l-25 -24 0 -796 0 -795 -43 0 c-33 0 -49 -6 -65 -23 -48
-51 -13 -117 62 -117 l44 0 4 -60 c6 -84 18 -94 123 -99 l84 -3 25 -53 c33
-72 87 -129 154 -162 77 -38 190 -39 270 -4 64 29 143 112 167 176 l18 45 827
0 826 0 23 -54 c30 -73 108 -146 186 -175 106 -40 232 -17 319 59 40 36 96
124 96 153 0 15 13 17 125 17 120 0 127 1 150 25 l25 24 0 367 0 367 -27 36
c-50 65 -495 576 -522 598 -25 22 -32 23 -263 23 l-238 0 0 225 0 226 -25 24
-24 25 -1136 0 -1136 0 -24 -25z m2200 -715 l0 -595 -1040 0 -1040 0 -3 585
c-1 322 0 591 3 598 3 10 217 12 1042 10 l1038 -3 0 -595z m525 -185 c0 -272
1 -286 20 -305 19 -19 33 -20 265 -20 l245 0 0 -270 0 -270 -80 0 c-69 0 -80
2 -80 18 0 31 -59 119 -104 156 -133 109 -320 96 -435 -30 -27 -30 -57 -74
-66 -99 l-18 -45 -63 0 -64 0 0 575 0 575 190 0 190 0 0 -285z m299 -13 c77
-89 141 -165 141 -167 0 -3 -67 -5 -150 -5 l-150 0 0 177 c0 102 4 173 9 168
5 -6 72 -83 150 -173z m-819 -697 l0 -155 -694 0 -693 0 -17 45 c-25 63 -96
139 -164 172 -48 24 -70 28 -137 28 -67 0 -89 -4 -137 -28 -67 -33 -121 -90
-155 -163 -23 -50 -27 -54 -59 -54 l-34 0 0 155 0 155 1045 0 1045 0 0 -155z
m-1658 -55 c79 -22 131 -91 131 -175 0 -229 -334 -244 -351 -16 -8 108 62 189
173 200 6 0 27 -4 47 -9z m2327 -18 c49 -23 91 -94 91 -154 0 -164 -186 -244
-301 -129 -96 96 -61 250 68 297 42 15 90 11 142 -14z"/>
<path d="M1310 1820 c-49 -49 -6 -120 74 -120 73 0 110 62 70 118 -21 31 -114
32 -144 2z"/>
<path d="M1570 1820 c-27 -27 -25 -66 5 -95 l24 -25 319 0 c296 0 321 1 343
18 28 23 30 73 4 102 -17 19 -30 20 -347 20 -315 0 -329 -1 -348 -20z"/>
</g>
</svg>
