<?xml version="1.0" encoding="utf-8"?>
<!-- Generator: Adobe Illustrator 16.0.0, SVG Export Plug-In . SVG Version: 6.00 Build 0)  -->
<!DOCTYPE svg PUBLIC "-//W3C//DTD SVG 1.1//EN" "http://www.w3.org/Graphics/SVG/1.1/DTD/svg11.dtd">
<svg version="1.1" id="Layer_1" xmlns="http://www.w3.org/2000/svg" xmlns:xlink="http://www.w3.org/1999/xlink" x="0px" y="0px"
	 width="612px" height="792px" viewBox="0 0 612 792" enable-background="new 0 0 612 792" xml:space="preserve">
<g>
	<defs>
		<path id="SVGID_1_" d="M8,337.304c0,34.693,23.808,63.6,55.918,71.937v244.925h-37.28C16.372,654.165,8,662.504,8,672.806
			c0,10.301,8.374,18.635,18.638,18.635h559.166c10.341,0,18.64-8.334,18.64-18.635c0-10.302-8.299-18.641-18.64-18.641h-37.278
			V409.24c32.11-8.337,55.918-37.243,55.918-71.937v-18.638H8V337.304L8,337.304z M380.777,411.861
			c41.209,0,74.556-33.383,74.556-74.558c0,34.693,23.808,63.6,55.917,71.937v244.925H231.667V411.861
			c41.209,0,74.555-33.383,74.555-74.558C306.222,378.478,339.64,411.861,380.777,411.861L380.777,411.861z M213.026,409.24v244.925
			H101.193V409.24c32.11-8.337,55.918-37.243,55.918-71.937C157.111,371.997,180.919,400.903,213.026,409.24L213.026,409.24z
			 M529.888,150.915H82.556L8,300.028h596.443L529.888,150.915L529.888,150.915z M165.484,192.347L128.207,266.9
			c-1.674,3.275-4.952,5.17-8.374,5.17c-1.382,0-2.804-0.294-4.149-0.983c-4.59-2.296-6.48-7.898-4.152-12.486l37.28-74.558
			c2.329-4.586,7.898-6.441,12.484-4.184C165.921,182.15,167.739,187.759,165.484,192.347L165.484,192.347z M240.04,192.347
			L202.762,266.9c-1.675,3.275-4.95,5.17-8.374,5.17c-1.383,0-2.802-0.294-4.152-0.983c-4.586-2.296-6.479-7.898-4.15-12.486
			l37.278-74.558c2.331-4.586,7.938-6.441,12.488-4.184C240.479,182.15,242.296,187.759,240.04,192.347L240.04,192.347z
			 M315.541,262.748c0,5.173-4.148,9.322-9.319,9.322c-5.133,0-9.32-4.149-9.32-9.322v-74.551c0-5.173,4.187-9.322,9.32-9.322
			c5.171,0,9.319,4.149,9.319,9.322V262.748L315.541,262.748z M422.568,270.904c-1.456,0.8-2.985,1.167-4.514,1.167
			c-3.277,0-6.481-1.751-8.153-4.843l-40.775-74.558c-2.473-4.511-0.801-10.189,3.713-12.627c4.442-2.479,10.195-0.877,12.67,3.674
			l40.773,74.556C428.686,262.785,427.083,268.466,422.568,270.904L422.568,270.904z M496.761,271.084
			c-1.311,0.691-2.696,0.986-4.15,0.986c-3.422,0-6.696-1.897-8.299-5.173l-37.278-74.555c-2.331-4.585-0.437-10.192,4.149-12.488
			c4.514-2.292,10.192-0.436,12.521,4.187l37.279,74.558C503.238,263.187,501.42,268.791,496.761,271.084L496.761,271.084z
			 M166.429,545.172v-42.957c-5.46-3.274-9.318-8.955-9.318-15.798c0-10.304,8.374-18.641,18.64-18.641
			c10.336,0,18.638,8.337,18.638,18.641c0,6.843-3.823,12.523-9.32,15.798v42.957c5.498,3.274,9.32,8.955,9.32,15.801
			c0,10.301-8.302,18.638-18.638,18.638c-10.267,0-18.64-8.337-18.64-18.638C157.111,554.125,160.971,548.446,166.429,545.172
			L166.429,545.172z M82.556,113.637c0-10.304,8.373-18.635,18.637-18.635H511.25c10.337,0,18.638,8.332,18.638,18.635
			c0,10.301-8.301,18.64-18.638,18.64H101.193C90.929,132.277,82.556,123.938,82.556,113.637L82.556,113.637z M334.689,511.643
			l-13.179-13.178l52.714-52.713l13.18,13.181L334.689,511.643L334.689,511.643z M334.689,564.357l-13.179-13.181l105.429-105.425
			l13.175,13.181L334.689,564.357L334.689,564.357z M426.939,498.467l13.175,13.178l-52.71,52.713l-13.18-13.181L426.939,498.467
			L426.939,498.467z"/>
	</defs>
	<use xlink:href="#SVGID_1_"  overflow="visible"/>
	<clipPath id="SVGID_2_">
		<use xlink:href="#SVGID_1_"  overflow="visible"/>
	</clipPath>
</g>
</svg>
